<svg width="1920" height="1290" viewBox="0 0 1920 1290" fill="none" xmlns="http://www.w3.org/2000/svg">
<path d="M932.257 305.027C893.787 290.298 793.763 267.069 701.434 291.988C586.022 323.137 591.174 373.845 711.738 384.71C832.302 395.576 949.774 365.876 932.257 335.451C914.741 305.027 849.822 303.578 822 299.956" stroke="#FFD375" stroke-width="5" stroke-linecap="round"/>
<g opacity="0.3">
<circle cx="12" cy="176" r="3" fill="#5BC17F"/>
<circle cx="30" cy="176" r="3" fill="#5BC17F"/>
<circle cx="48" cy="176" r="3" fill="#5BC17F"/>
<circle cx="66" cy="176" r="3" fill="#5BC17F"/>
<circle cx="84" cy="176" r="3" fill="#5BC17F"/>
<circle cx="12" cy="194" r="3" fill="#5BC17F"/>
<circle cx="30" cy="194" r="3" fill="#5BC17F"/>
<circle cx="48" cy="194" r="3" fill="#5BC17F"/>
<circle cx="66" cy="194" r="3" fill="#5BC17F"/>
<circle cx="84" cy="194" r="3" fill="#5BC17F"/>
<circle cx="12" cy="212" r="3" fill="#5BC17F"/>
<circle cx="30" cy="212" r="3" fill="#5BC17F"/>
<circle cx="48" cy="212" r="3" fill="#5BC17F"/>
<circle cx="66" cy="212" r="3" fill="#5BC17F"/>
<circle cx="84" cy="212" r="3" fill="#5BC17F"/>
<circle cx="12" cy="230" r="3" fill="#5BC17F"/>
<circle cx="30" cy="230" r="3" fill="#5BC17F"/>
<circle cx="48" cy="230" r="3" fill="#5BC17F"/>
<circle cx="66" cy="230" r="3" fill="#5BC17F"/>
<circle cx="84" cy="230" r="3" fill="#5BC17F"/>
<circle cx="12" cy="248" r="3" fill="#5BC17F"/>
<circle cx="30" cy="248" r="3" fill="#5BC17F"/>
<circle cx="48" cy="248" r="3" fill="#5BC17F"/>
<circle cx="66" cy="248" r="3" fill="#5BC17F"/>
<circle cx="84" cy="248" r="3" fill="#5BC17F"/>
<circle cx="12" cy="266" r="3" fill="#5BC17F"/>
<circle cx="30" cy="266" r="3" fill="#5BC17F"/>
<circle cx="48" cy="266" r="3" fill="#5BC17F"/>
<circle cx="66" cy="266" r="3" fill="#5BC17F"/>
<circle cx="84" cy="266" r="3" fill="#5BC17F"/>
<circle cx="12" cy="284" r="3" fill="#5BC17F"/>
<circle cx="30" cy="284" r="3" fill="#5BC17F"/>
<circle cx="48" cy="284" r="3" fill="#5BC17F"/>
<circle cx="66" cy="284" r="3" fill="#5BC17F"/>
<circle cx="84" cy="284" r="3" fill="#5BC17F"/>
<circle cx="12" cy="302" r="3" fill="#5BC17F"/>
<circle cx="30" cy="302" r="3" fill="#5BC17F"/>
<circle cx="48" cy="302" r="3" fill="#5BC17F"/>
<circle cx="66" cy="302" r="3" fill="#5BC17F"/>
<circle cx="84" cy="302" r="3" fill="#5BC17F"/>
<circle cx="12" cy="320" r="3" fill="#5BC17F"/>
<circle cx="30" cy="320" r="3" fill="#5BC17F"/>
<circle cx="48" cy="320" r="3" fill="#5BC17F"/>
<circle cx="66" cy="320" r="3" fill="#5BC17F"/>
<circle cx="84" cy="320" r="3" fill="#5BC17F"/>
<circle cx="12" cy="338" r="3" fill="#5BC17F"/>
<circle cx="30" cy="338" r="3" fill="#5BC17F"/>
<circle cx="48" cy="338" r="3" fill="#5BC17F"/>
<circle cx="66" cy="338" r="3" fill="#5BC17F"/>
<circle cx="84" cy="338" r="3" fill="#5BC17F"/>
<circle cx="12" cy="356" r="3" fill="#5BC17F"/>
<circle cx="30" cy="356" r="3" fill="#5BC17F"/>
<circle cx="48" cy="356" r="3" fill="#5BC17F"/>
<circle cx="66" cy="356" r="3" fill="#5BC17F"/>
<circle cx="84" cy="356" r="3" fill="#5BC17F"/>
</g>
<g opacity="0.3">
<circle cx="1795" cy="659" r="3" fill="#5BC17F"/>
<circle cx="1813" cy="659" r="3" fill="#5BC17F"/>
<circle cx="1831" cy="659" r="3" fill="#5BC17F"/>
<circle cx="1849" cy="659" r="3" fill="#5BC17F"/>
<circle cx="1867" cy="659" r="3" fill="#5BC17F"/>
<circle cx="1885" cy="659" r="3" fill="#5BC17F"/>
<circle cx="1903" cy="659" r="3" fill="#5BC17F"/>
<circle cx="1921" cy="659" r="3" fill="#5BC17F"/>
<circle cx="1795" cy="677" r="3" fill="#5BC17F"/>
<circle cx="1813" cy="677" r="3" fill="#5BC17F"/>
<circle cx="1831" cy="677" r="3" fill="#5BC17F"/>
<circle cx="1849" cy="677" r="3" fill="#5BC17F"/>
<circle cx="1867" cy="677" r="3" fill="#5BC17F"/>
<circle cx="1885" cy="677" r="3" fill="#5BC17F"/>
<circle cx="1903" cy="677" r="3" fill="#5BC17F"/>
<circle cx="1921" cy="677" r="3" fill="#5BC17F"/>
<circle cx="1795" cy="695" r="3" fill="#5BC17F"/>
<circle cx="1813" cy="695" r="3" fill="#5BC17F"/>
<circle cx="1831" cy="695" r="3" fill="#5BC17F"/>
<circle cx="1849" cy="695" r="3" fill="#5BC17F"/>
<circle cx="1867" cy="695" r="3" fill="#5BC17F"/>
<circle cx="1885" cy="695" r="3" fill="#5BC17F"/>
<circle cx="1903" cy="695" r="3" fill="#5BC17F"/>
<circle cx="1921" cy="695" r="3" fill="#5BC17F"/>
<circle cx="1795" cy="713" r="3" fill="#5BC17F"/>
<circle cx="1813" cy="713" r="3" fill="#5BC17F"/>
<circle cx="1831" cy="713" r="3" fill="#5BC17F"/>
<circle cx="1849" cy="713" r="3" fill="#5BC17F"/>
<circle cx="1867" cy="713" r="3" fill="#5BC17F"/>
<circle cx="1885" cy="713" r="3" fill="#5BC17F"/>
<circle cx="1903" cy="713" r="3" fill="#5BC17F"/>
<circle cx="1921" cy="713" r="3" fill="#5BC17F"/>
<circle cx="1795" cy="731" r="3" fill="#5BC17F"/>
<circle cx="1813" cy="731" r="3" fill="#5BC17F"/>
<circle cx="1831" cy="731" r="3" fill="#5BC17F"/>
<circle cx="1849" cy="731" r="3" fill="#5BC17F"/>
<circle cx="1867" cy="731" r="3" fill="#5BC17F"/>
<circle cx="1885" cy="731" r="3" fill="#5BC17F"/>
<circle cx="1903" cy="731" r="3" fill="#5BC17F"/>
<circle cx="1921" cy="731" r="3" fill="#5BC17F"/>
<circle cx="1795" cy="749" r="3" fill="#5BC17F"/>
<circle cx="1813" cy="749" r="3" fill="#5BC17F"/>
<circle cx="1831" cy="749" r="3" fill="#5BC17F"/>
<circle cx="1849" cy="749" r="3" fill="#5BC17F"/>
<circle cx="1867" cy="749" r="3" fill="#5BC17F"/>
<circle cx="1885" cy="749" r="3" fill="#5BC17F"/>
<circle cx="1903" cy="749" r="3" fill="#5BC17F"/>
<circle cx="1921" cy="749" r="3" fill="#5BC17F"/>
<circle cx="1795" cy="767" r="3" fill="#5BC17F"/>
<circle cx="1813" cy="767" r="3" fill="#5BC17F"/>
<circle cx="1831" cy="767" r="3" fill="#5BC17F"/>
<circle cx="1849" cy="767" r="3" fill="#5BC17F"/>
<circle cx="1867" cy="767" r="3" fill="#5BC17F"/>
<circle cx="1885" cy="767" r="3" fill="#5BC17F"/>
<circle cx="1903" cy="767" r="3" fill="#5BC17F"/>
<circle cx="1921" cy="767" r="3" fill="#5BC17F"/>
<circle cx="1795" cy="785" r="3" fill="#5BC17F"/>
<circle cx="1813" cy="785" r="3" fill="#5BC17F"/>
<circle cx="1831" cy="785" r="3" fill="#5BC17F"/>
<circle cx="1849" cy="785" r="3" fill="#5BC17F"/>
<circle cx="1867" cy="785" r="3" fill="#5BC17F"/>
<circle cx="1885" cy="785" r="3" fill="#5BC17F"/>
<circle cx="1903" cy="785" r="3" fill="#5BC17F"/>
<circle cx="1921" cy="785" r="3" fill="#5BC17F"/>
<circle cx="1795" cy="803" r="3" fill="#5BC17F"/>
<circle cx="1813" cy="803" r="3" fill="#5BC17F"/>
<circle cx="1831" cy="803" r="3" fill="#5BC17F"/>
<circle cx="1849" cy="803" r="3" fill="#5BC17F"/>
<circle cx="1867" cy="803" r="3" fill="#5BC17F"/>
<circle cx="1885" cy="803" r="3" fill="#5BC17F"/>
<circle cx="1903" cy="803" r="3" fill="#5BC17F"/>
<circle cx="1921" cy="803" r="3" fill="#5BC17F"/>
<circle cx="1795" cy="821" r="3" fill="#5BC17F"/>
<circle cx="1813" cy="821" r="3" fill="#5BC17F"/>
<circle cx="1831" cy="821" r="3" fill="#5BC17F"/>
<circle cx="1849" cy="821" r="3" fill="#5BC17F"/>
<circle cx="1867" cy="821" r="3" fill="#5BC17F"/>
<circle cx="1885" cy="821" r="3" fill="#5BC17F"/>
<circle cx="1903" cy="821" r="3" fill="#5BC17F"/>
<circle cx="1921" cy="821" r="3" fill="#5BC17F"/>
<circle cx="1795" cy="839" r="3" fill="#5BC17F"/>
<circle cx="1813" cy="839" r="3" fill="#5BC17F"/>
<circle cx="1831" cy="839" r="3" fill="#5BC17F"/>
<circle cx="1849" cy="839" r="3" fill="#5BC17F"/>
<circle cx="1867" cy="839" r="3" fill="#5BC17F"/>
<circle cx="1885" cy="839" r="3" fill="#5BC17F"/>
<circle cx="1903" cy="839" r="3" fill="#5BC17F"/>
<circle cx="1921" cy="839" r="3" fill="#5BC17F"/>
</g>
<g filter="url(#filter0_f_5_67)">
<ellipse cx="203" cy="1007" rx="338" ry="339" fill="#5BC17F" fill-opacity="0.1"/>
</g>
<g filter="url(#filter1_f_5_67)">
<ellipse cx="1718" cy="155" rx="338" ry="339" fill="#FFD375" fill-opacity="0.1"/>
</g>
<ellipse cx="9.43987" cy="8.92546" rx="9.43987" ry="8.92546" transform="matrix(-0.94509 0.32681 0.32681 0.94509 989.31 736.784)" fill="#5BC17F" fill-opacity="0.25"/>
<ellipse cx="9.43987" cy="8.92546" rx="9.43987" ry="8.92546" transform="matrix(-0.94509 0.32681 0.32681 0.94509 441.843 134)" fill="#5BC17F" fill-opacity="0.25"/>
<ellipse cx="9.43987" cy="8.92546" rx="9.43987" ry="8.92546" transform="matrix(-0.94509 0.32681 0.32681 0.94509 214.843 795)" fill="#5BC17F" fill-opacity="0.25"/>
<ellipse cx="9.43987" cy="8.92546" rx="9.43987" ry="8.92546" transform="matrix(-0.94509 0.32681 0.32681 0.94509 1575.84 473)" fill="#5BC17F" fill-opacity="0.25"/>
<circle cx="776" cy="606" r="11" fill="#FFD375" fill-opacity="0.25"/>
<circle cx="1319" cy="262" r="11" fill="#FFD375" fill-opacity="0.25"/>
<circle cx="1610" cy="895" r="11" fill="#FFD375" fill-opacity="0.25"/>
<circle cx="192" cy="356" r="11" fill="#FFD375" fill-opacity="0.25"/>
<defs>
<filter id="filter0_f_5_67" x="-235" y="568" width="876" height="878" filterUnits="userSpaceOnUse" color-interpolation-filters="sRGB">
<feFlood flood-opacity="0" result="BackgroundImageFix"/>
<feBlend mode="normal" in="SourceGraphic" in2="BackgroundImageFix" result="shape"/>
<feGaussianBlur stdDeviation="50" result="effect1_foregroundBlur_5_67"/>
</filter>
<filter id="filter1_f_5_67" x="1280" y="-284" width="876" height="878" filterUnits="userSpaceOnUse" color-interpolation-filters="sRGB">
<feFlood flood-opacity="0" result="BackgroundImageFix"/>
<feBlend mode="normal" in="SourceGraphic" in2="BackgroundImageFix" result="shape"/>
<feGaussianBlur stdDeviation="50" result="effect1_foregroundBlur_5_67"/>
</filter>
</defs>
</svg>
