<svg width="392" height="78" viewBox="0 0 392 78" fill="none" xmlns="http://www.w3.org/2000/svg">
<mask id="path-1-outside-1_5_489" maskUnits="userSpaceOnUse" x="109" y="23" width="265" height="28" fill="black">
<rect fill="white" x="109" y="23" width="265" height="28"/>
<path d="M110 29.912V24.8H124.76V50H115.364V29.912H110ZM129.432 34.88V24.8H169.716V34.88L160.32 33.584V29.912H154.272V50H144.876V29.912H138.828V33.584L129.432 34.88ZM172.585 39.956V34.844H197.353V39.956H172.585ZM199.156 29.912V24.8H213.916V42.44L218.524 44.888H232.492V24.8H241.888V50H216.004L204.52 43.88V29.912H199.156ZM245.492 29.912V24.8H260.252V44.888H275.3V41.828L284.696 40.532V50H250.856V29.912H245.492ZM289.373 50V41.72L298.769 43.088V44.888H316.985V41.72L289.373 37.364V24.8H326.381V33.548L316.985 32.108V29.912H298.769V33.332L326.381 37.688V50H289.373ZM329.621 45.86V39.416L334.985 37.976V24.8H344.381V35.42L362.777 30.452V24.8H372.173V34.376L358.061 38.192L366.161 44.6H372.389V50H360.581L348.737 40.676L344.381 41.864V50H334.985V44.42L329.621 45.86Z"/>
</mask>
<path d="M110 29.912H109V30.912H110V29.912ZM110 24.8V23.8H109V24.8H110ZM124.76 24.8H125.76V23.8H124.76V24.8ZM124.76 50V51H125.76V50H124.76ZM115.364 50H114.364V51H115.364V50ZM115.364 29.912H116.364V28.912H115.364V29.912ZM111 29.912V24.8H109V29.912H111ZM110 25.8H124.76V23.8H110V25.8ZM123.76 24.8V50H125.76V24.8H123.76ZM124.76 49H115.364V51H124.76V49ZM116.364 50V29.912H114.364V50H116.364ZM115.364 28.912H110V30.912H115.364V28.912ZM129.432 34.88H128.432V36.0274L129.568 35.8706L129.432 34.88ZM129.432 24.8V23.8H128.432V24.8H129.432ZM169.716 24.8H170.716V23.8H169.716V24.8ZM169.716 34.88L169.579 35.8706L170.716 36.0274V34.88H169.716ZM160.32 33.584H159.32V34.4555L160.183 34.5746L160.32 33.584ZM160.32 29.912H161.32V28.912H160.32V29.912ZM154.272 29.912V28.912H153.272V29.912H154.272ZM154.272 50V51H155.272V50H154.272ZM144.876 50H143.876V51H144.876V50ZM144.876 29.912H145.876V28.912H144.876V29.912ZM138.828 29.912V28.912H137.828V29.912H138.828ZM138.828 33.584L138.964 34.5746L139.828 34.4555V33.584H138.828ZM130.432 34.88V24.8H128.432V34.88H130.432ZM129.432 25.8H169.716V23.8H129.432V25.8ZM168.716 24.8V34.88H170.716V24.8H168.716ZM169.852 33.8894L160.456 32.5934L160.183 34.5746L169.579 35.8706L169.852 33.8894ZM161.32 33.584V29.912H159.32V33.584H161.32ZM160.32 28.912H154.272V30.912H160.32V28.912ZM153.272 29.912V50H155.272V29.912H153.272ZM154.272 49H144.876V51H154.272V49ZM145.876 50V29.912H143.876V50H145.876ZM144.876 28.912H138.828V30.912H144.876V28.912ZM137.828 29.912V33.584H139.828V29.912H137.828ZM138.691 32.5934L129.295 33.8894L129.568 35.8706L138.964 34.5746L138.691 32.5934ZM172.585 39.956H171.585V40.956H172.585V39.956ZM172.585 34.844V33.844H171.585V34.844H172.585ZM197.353 34.844H198.353V33.844H197.353V34.844ZM197.353 39.956V40.956H198.353V39.956H197.353ZM173.585 39.956V34.844H171.585V39.956H173.585ZM172.585 35.844H197.353V33.844H172.585V35.844ZM196.353 34.844V39.956H198.353V34.844H196.353ZM197.353 38.956H172.585V40.956H197.353V38.956ZM199.156 29.912H198.156V30.912H199.156V29.912ZM199.156 24.8V23.8H198.156V24.8H199.156ZM213.916 24.8H214.916V23.8H213.916V24.8ZM213.916 42.44H212.916V43.0411L213.447 43.3231L213.916 42.44ZM218.524 44.888L218.055 45.7711L218.275 45.888H218.524V44.888ZM232.492 44.888V45.888H233.492V44.888H232.492ZM232.492 24.8V23.8H231.492V24.8H232.492ZM241.888 24.8H242.888V23.8H241.888V24.8ZM241.888 50V51H242.888V50H241.888ZM216.004 50L215.534 50.8825L215.754 51H216.004V50ZM204.52 43.88H203.52V44.4802L204.05 44.7625L204.52 43.88ZM204.52 29.912H205.52V28.912H204.52V29.912ZM200.156 29.912V24.8H198.156V29.912H200.156ZM199.156 25.8H213.916V23.8H199.156V25.8ZM212.916 24.8V42.44H214.916V24.8H212.916ZM213.447 43.3231L218.055 45.7711L218.993 44.0049L214.385 41.5569L213.447 43.3231ZM218.524 45.888H232.492V43.888H218.524V45.888ZM233.492 44.888V24.8H231.492V44.888H233.492ZM232.492 25.8H241.888V23.8H232.492V25.8ZM240.888 24.8V50H242.888V24.8H240.888ZM241.888 49H216.004V51H241.888V49ZM216.475 49.1175L204.991 42.9975L204.05 44.7625L215.534 50.8825L216.475 49.1175ZM205.52 43.88V29.912H203.52V43.88H205.52ZM204.52 28.912H199.156V30.912H204.52V28.912ZM245.492 29.912H244.492V30.912H245.492V29.912ZM245.492 24.8V23.8H244.492V24.8H245.492ZM260.252 24.8H261.252V23.8H260.252V24.8ZM260.252 44.888H259.252V45.888H260.252V44.888ZM275.3 44.888V45.888H276.3V44.888H275.3ZM275.3 41.828L275.164 40.8374L274.3 40.9565V41.828H275.3ZM284.696 40.532H285.696V39.3846L284.56 39.5414L284.696 40.532ZM284.696 50V51H285.696V50H284.696ZM250.856 50H249.856V51H250.856V50ZM250.856 29.912H251.856V28.912H250.856V29.912ZM246.492 29.912V24.8H244.492V29.912H246.492ZM245.492 25.8H260.252V23.8H245.492V25.8ZM259.252 24.8V44.888H261.252V24.8H259.252ZM260.252 45.888H275.3V43.888H260.252V45.888ZM276.3 44.888V41.828H274.3V44.888H276.3ZM275.437 42.8186L284.833 41.5226L284.56 39.5414L275.164 40.8374L275.437 42.8186ZM283.696 40.532V50H285.696V40.532H283.696ZM284.696 49H250.856V51H284.696V49ZM251.856 50V29.912H249.856V50H251.856ZM250.856 28.912H245.492V30.912H250.856V28.912ZM289.373 50H288.373V51H289.373V50ZM289.373 41.72L289.517 40.7304L288.373 40.5639V41.72H289.373ZM298.769 43.088H299.769V42.2231L298.913 42.0984L298.769 43.088ZM298.769 44.888H297.769V45.888H298.769V44.888ZM316.985 44.888V45.888H317.985V44.888H316.985ZM316.985 41.72H317.985V40.8654L317.141 40.7322L316.985 41.72ZM289.373 37.364H288.373V38.2186L289.217 38.3518L289.373 37.364ZM289.373 24.8V23.8H288.373V24.8H289.373ZM326.381 24.8H327.381V23.8H326.381V24.8ZM326.381 33.548L326.229 34.5365L327.381 34.7129V33.548H326.381ZM316.985 32.108H315.985V32.9664L316.833 33.0965L316.985 32.108ZM316.985 29.912H317.985V28.912H316.985V29.912ZM298.769 29.912V28.912H297.769V29.912H298.769ZM298.769 33.332H297.769V34.1866L298.613 34.3198L298.769 33.332ZM326.381 37.688H327.381V36.8334L326.537 36.7002L326.381 37.688ZM326.381 50V51H327.381V50H326.381ZM290.373 50V41.72H288.373V50H290.373ZM289.229 42.7096L298.625 44.0776L298.913 42.0984L289.517 40.7304L289.229 42.7096ZM297.769 43.088V44.888H299.769V43.088H297.769ZM298.769 45.888H316.985V43.888H298.769V45.888ZM317.985 44.888V41.72H315.985V44.888H317.985ZM317.141 40.7322L289.529 36.3762L289.217 38.3518L316.829 42.7078L317.141 40.7322ZM290.373 37.364V24.8H288.373V37.364H290.373ZM289.373 25.8H326.381V23.8H289.373V25.8ZM325.381 24.8V33.548H327.381V24.8H325.381ZM326.532 32.5595L317.136 31.1195L316.833 33.0965L326.229 34.5365L326.532 32.5595ZM317.985 32.108V29.912H315.985V32.108H317.985ZM316.985 28.912H298.769V30.912H316.985V28.912ZM297.769 29.912V33.332H299.769V29.912H297.769ZM298.613 34.3198L326.225 38.6758L326.537 36.7002L298.925 32.3442L298.613 34.3198ZM325.381 37.688V50H327.381V37.688H325.381ZM326.381 49H289.373V51H326.381V49ZM329.621 45.86H328.621V47.1639L329.88 46.8258L329.621 45.86ZM329.621 39.416L329.362 38.4502L328.621 38.649V39.416H329.621ZM334.985 37.976L335.244 38.9418L335.985 38.743V37.976H334.985ZM334.985 24.8V23.8H333.985V24.8H334.985ZM344.381 24.8H345.381V23.8H344.381V24.8ZM344.381 35.42H343.381V36.7259L344.642 36.3854L344.381 35.42ZM362.777 30.452L363.038 31.4174L363.777 31.2178V30.452H362.777ZM362.777 24.8V23.8H361.777V24.8H362.777ZM372.173 24.8H373.173V23.8H372.173V24.8ZM372.173 34.376L372.434 35.3413L373.173 35.1415V34.376H372.173ZM358.061 38.192L357.8 37.2267L355.884 37.7448L357.441 38.9763L358.061 38.192ZM366.161 44.6L365.541 45.3843L365.813 45.6H366.161V44.6ZM372.389 44.6H373.389V43.6H372.389V44.6ZM372.389 50V51H373.389V50H372.389ZM360.581 50L359.963 50.7857L360.235 51H360.581V50ZM348.737 40.676L349.356 39.8903L348.96 39.5787L348.474 39.7112L348.737 40.676ZM344.381 41.864L344.118 40.8992L343.381 41.1002V41.864H344.381ZM344.381 50V51H345.381V50H344.381ZM334.985 50H333.985V51H334.985V50ZM334.985 44.42H335.985V43.1161L334.726 43.4542L334.985 44.42ZM330.621 45.86V39.416H328.621V45.86H330.621ZM329.88 40.3818L335.244 38.9418L334.726 37.0102L329.362 38.4502L329.88 40.3818ZM335.985 37.976V24.8H333.985V37.976H335.985ZM334.985 25.8H344.381V23.8H334.985V25.8ZM343.381 24.8V35.42H345.381V24.8H343.381ZM344.642 36.3854L363.038 31.4174L362.516 29.4866L344.12 34.4546L344.642 36.3854ZM363.777 30.452V24.8H361.777V30.452H363.777ZM362.777 25.8H372.173V23.8H362.777V25.8ZM371.173 24.8V34.376H373.173V24.8H371.173ZM371.912 33.4107L357.8 37.2267L358.322 39.1573L372.434 35.3413L371.912 33.4107ZM357.441 38.9763L365.541 45.3843L366.782 43.8157L358.682 37.4077L357.441 38.9763ZM366.161 45.6H372.389V43.6H366.161V45.6ZM371.389 44.6V50H373.389V44.6H371.389ZM372.389 49H360.581V51H372.389V49ZM361.2 49.2143L349.356 39.8903L348.119 41.4617L359.963 50.7857L361.2 49.2143ZM348.474 39.7112L344.118 40.8992L344.644 42.8288L349 41.6408L348.474 39.7112ZM343.381 41.864V50H345.381V41.864H343.381ZM344.381 49H334.985V51H344.381V49ZM335.985 50V44.42H333.985V50H335.985ZM334.726 43.4542L329.362 44.8942L329.88 46.8258L335.244 45.3858L334.726 43.4542Z" fill="black" mask="url(#path-1-outside-1_5_489)"/>
<path fill-rule="evenodd" clip-rule="evenodd" d="M41.1246 2.74061C41.1246 1.7793 40.3453 1 39.384 1C38.4227 1 37.6434 1.7793 37.6434 2.74061C37.6434 3.70192 38.4227 4.48121 39.384 4.48121C40.3453 4.48121 41.1246 3.70192 41.1246 2.74061ZM42.1246 2.74061C42.1246 1.22701 40.8976 0 39.384 0C37.8704 0 36.6434 1.22701 36.6434 2.74061C36.6434 4.06907 37.5886 5.17677 38.8432 5.42787L38.8425 9.69584C36.701 9.71932 34.6139 9.96953 32.6041 10.4236L31.4437 6.09307C31.3722 5.82633 31.0981 5.66804 30.8313 5.73951C30.5646 5.81099 30.4063 6.08515 30.4778 6.35189L31.6323 10.6605C29.3337 11.2625 27.1439 12.133 25.0983 13.2366L22.9516 9.51714C23.964 8.68047 24.2549 7.21144 23.5763 6.03612C22.8195 4.72531 21.1434 4.27619 19.8326 5.03299C18.5218 5.78978 18.0727 7.46591 18.8295 8.77672C19.4937 9.92718 20.866 10.4139 22.0781 10.0041L24.2263 13.7262C22.393 14.7966 20.6848 16.0578 19.1289 17.4827L16.1377 14.4916C15.9425 14.2963 15.6259 14.2963 15.4306 14.4916C15.2354 14.6868 15.2354 15.0034 15.4306 15.1987L18.4025 18.1706C16.7386 19.8001 15.2656 21.6238 14.0202 23.6051L10.3603 21.4913C10.8186 20.2606 10.3361 18.8429 9.16076 18.1644C7.84995 17.4076 6.17382 17.8567 5.41703 19.1675C4.66023 20.4783 5.10934 22.1544 6.42016 22.9112C7.57064 23.5755 9.00253 23.3107 9.84728 22.3498L13.5023 24.4607C12.4131 26.3304 11.5224 28.3298 10.8588 30.4301L7.08168 29.418C6.81495 29.3466 6.54078 29.5049 6.46931 29.7716C6.39784 30.0383 6.55613 30.3125 6.82286 30.384L10.5737 31.389C9.96942 33.5554 9.60465 35.8216 9.50974 38.1574L5.44291 38.1568C5.22446 36.8618 4.09773 35.8754 2.74061 35.8754C1.22701 35.8754 0 37.1024 0 38.616C0 40.1296 1.22701 41.3566 2.74061 41.3566C4.06907 41.3566 5.17677 40.4114 5.42787 39.1568L9.48571 39.1574C9.48515 39.2328 9.48486 39.3083 9.48486 39.3839C9.48486 41.6341 9.73519 43.8258 10.2095 45.9327L6.70208 46.8725C6.43534 46.944 6.27705 47.2182 6.34852 47.4849C6.41999 47.7516 6.69416 47.9099 6.9609 47.8385L10.4457 46.9047C11.0152 49.0861 11.8265 51.1697 12.8494 53.1253L9.51724 55.0484C8.68057 54.0361 7.21154 53.7452 6.03622 54.4237C4.72541 55.1805 4.27629 56.8567 5.03309 58.1675C5.78989 59.4783 7.46602 59.9274 8.77683 59.1706C9.92729 58.5064 10.414 57.134 10.0042 55.922L13.3279 54.0037C14.5053 56.0808 15.9258 58.0019 17.5508 59.7284L15.1006 62.1786C14.9054 62.3739 14.9054 62.6904 15.1006 62.8857C15.2959 63.081 15.6125 63.081 15.8077 62.8857L18.2483 60.4451C19.7809 61.968 21.4789 63.3247 23.3128 64.486L21.4913 67.6398C20.2606 67.1815 18.843 67.6641 18.1645 68.8393C17.4077 70.1502 17.8568 71.8263 19.1676 72.5831C20.4784 73.3399 22.1545 72.8908 22.9113 71.58C23.5756 70.4295 23.3108 68.9975 22.3498 68.1528L24.1668 65.0068C26.2659 66.239 28.53 67.2206 30.9177 67.9105L30.027 71.2346C29.9556 71.5013 30.1139 71.7755 30.3806 71.847C30.6473 71.9184 30.9215 71.7602 30.993 71.4934L31.883 68.1718C33.9003 68.6812 35.9998 68.9841 38.1576 69.0567L38.157 72.6242C37.0559 72.9798 36.2594 74.0132 36.2594 75.2327C36.2594 76.7463 37.4864 77.9733 39 77.9733C40.5136 77.9733 41.7406 76.7463 41.7406 75.2327C41.7406 73.7718 40.5976 72.5779 39.1571 72.4965L39.1576 69.0738L39.1748 69.0738C41.7219 69.0738 44.1942 68.7531 46.5533 68.1497L47.4816 71.6143C47.5531 71.881 47.8273 72.0393 48.094 71.9679C48.3608 71.8964 48.519 71.6222 48.4476 71.3555L47.5178 67.8855C49.5517 67.2912 51.4951 66.485 53.3227 65.4926L55.0485 68.4828C54.0363 69.3195 53.7453 70.7885 54.4239 71.9638C55.1807 73.2746 56.8568 73.7238 58.1676 72.967C59.4784 72.2102 59.9276 70.534 59.1708 69.2232C58.5065 68.0728 57.1341 67.5861 55.9221 67.9959L54.1934 65.0006C56.3348 63.7424 58.3046 62.2233 60.0589 60.4871L62.7876 63.2157C62.9828 63.411 63.2994 63.411 63.4947 63.2157C63.6899 63.0204 63.6899 62.7039 63.4947 62.5086L60.7578 59.7718C62.2043 58.2411 63.4897 56.5566 64.5869 54.7454L67.6399 56.5087C67.1815 57.7394 67.6641 59.157 68.8394 59.8356C70.1502 60.5924 71.8263 60.1433 72.5831 58.8325C73.3399 57.5216 72.8908 55.8455 71.58 55.0887C70.4295 54.4245 68.9976 54.6892 68.1529 55.6502L65.0905 53.8815C66.2573 51.8002 67.1806 49.5641 67.8219 47.2117L71.8437 48.2894C72.1104 48.3608 72.3846 48.2025 72.456 47.9358C72.5275 47.6691 72.3692 47.3949 72.1025 47.3234L68.0685 46.2425C68.5554 44.1837 68.8279 42.0421 68.8612 39.8425L72.5571 39.8431C72.7756 41.138 73.9023 42.1245 75.2595 42.1245C76.773 42.1245 78.0001 40.8975 78.0001 39.3839C78.0001 37.8703 76.773 36.6433 75.2595 36.6433C73.931 36.6433 72.8233 37.5885 72.5722 38.8431L68.8598 38.8425C68.8175 36.4785 68.499 34.182 67.935 31.9838L72.2233 30.8347C72.49 30.7633 72.6483 30.4891 72.5768 30.2224C72.5053 29.9556 72.2312 29.7973 71.9644 29.8688L67.6701 31.0195C67.0401 28.8698 66.1735 26.8212 65.1003 24.9038L68.4829 22.9516C69.3195 23.9639 70.7885 24.2548 71.9638 23.5762C73.2747 22.8194 73.7238 21.1433 72.967 19.8325C72.2102 18.5217 70.534 18.0725 69.2232 18.8293C68.0728 19.4936 67.5861 20.866 67.9959 22.078L64.5972 24.0396C63.4486 22.1406 62.0933 20.3808 60.5624 18.7911L63.8247 15.5288C64.02 15.3335 64.02 15.0169 63.8247 14.8217C63.6295 14.6264 63.3129 14.6264 63.1176 14.8217L59.8567 18.0826C58.2252 16.4982 56.4124 15.0997 54.4522 13.9211L56.5088 10.3603C57.7395 10.8186 59.1571 10.336 59.8357 9.16071C60.5925 7.8499 60.1434 6.17377 58.8326 5.41697C57.5217 4.66017 55.8456 5.10929 55.0888 6.4201C54.4246 7.57059 54.6893 9.00249 55.6503 9.84724L53.5866 13.4203C51.7375 12.3917 49.7671 11.5549 47.7021 10.9368L48.8983 6.47267C48.9698 6.20594 48.8115 5.93177 48.5448 5.8603C48.278 5.78883 48.0039 5.94712 47.9324 6.21385L46.7393 10.6663C44.5304 10.0861 42.2209 9.75387 39.8425 9.70138L39.8432 5.44291C41.1381 5.22445 42.1246 4.09773 42.1246 2.74061ZM77.0001 39.3839C77.0001 40.3452 76.2208 41.1245 75.2595 41.1245C74.2981 41.1245 73.5188 40.3452 73.5188 39.3839C73.5188 38.4226 74.2981 37.6433 75.2595 37.6433C76.2208 37.6433 77.0001 38.4226 77.0001 39.3839ZM71.4638 22.7102C72.2964 22.2295 72.5816 21.165 72.1009 20.3325C71.6203 19.5 70.5558 19.2147 69.7232 19.6954C68.8907 20.176 68.6055 21.2406 69.0861 22.0731C69.5668 22.9056 70.6313 23.1908 71.4638 22.7102ZM58.3326 6.283C59.1651 6.76365 59.4503 7.82819 58.9697 8.66071C58.489 9.49323 57.4245 9.77847 56.592 9.29782C55.7594 8.81716 55.4742 7.75262 55.9548 6.9201C56.4355 6.08758 57.5 5.80234 58.3326 6.283ZM20.3326 5.89901C21.1651 5.41836 22.2296 5.7036 22.7103 6.53612C23.1909 7.36864 22.9057 8.43317 22.0732 8.91383C21.2407 9.39448 20.1761 9.10924 19.6955 8.27672C19.2148 7.4442 19.5001 6.37967 20.3326 5.89901ZM8.66076 19.0304C7.82824 18.5497 6.76371 18.835 6.28305 19.6675C5.8024 20.5 6.08764 21.5646 6.92016 22.0452C7.75268 22.5259 8.81721 22.2406 9.29787 21.4081C9.77852 20.5756 9.49328 19.511 8.66076 19.0304ZM1 38.616C1 37.6547 1.7793 36.8754 2.74061 36.8754C3.70192 36.8754 4.48121 37.6547 4.48121 38.616C4.48121 39.5773 3.70192 40.3566 2.74061 40.3566C1.7793 40.3566 1 39.5773 1 38.616ZM6.53622 55.2898C5.7037 55.7704 5.41846 56.835 5.89912 57.6675C6.37977 58.5 7.44431 58.7852 8.27683 58.3046C9.10935 57.8239 9.39459 56.7594 8.91393 55.9269C8.43328 55.0943 7.36874 54.8091 6.53622 55.2898ZM19.6676 71.7171C18.8351 71.2364 18.5498 70.1719 19.0305 69.3393C19.5112 68.5068 20.5757 68.2216 21.4082 68.7022C22.2407 69.1829 22.526 70.2474 22.0453 71.08C21.5647 71.9125 20.5001 72.1977 19.6676 71.7171ZM37.2594 75.2327C37.2594 76.194 38.0387 76.9733 39 76.9733C39.9613 76.9733 40.7406 76.194 40.7406 75.2327C40.7406 74.2714 39.9613 73.4921 39 73.4921C38.0387 73.4921 37.2594 74.2714 37.2594 75.2327ZM57.6676 72.1009C56.8351 72.5816 55.7706 72.2964 55.2899 71.4638C54.8093 70.6313 55.0945 69.5668 55.927 69.0861C56.7595 68.6055 57.8241 68.8907 58.3047 69.7232C58.7854 70.5557 58.5002 71.6203 57.6676 72.1009ZM69.3394 58.9696C70.1719 59.4502 71.2365 59.165 71.7171 58.3325C72.1978 57.4999 71.9125 56.4354 71.08 55.9547C70.2475 55.4741 69.183 55.7593 68.7023 56.5919C68.2216 57.4244 68.5069 58.4889 69.3394 58.9696ZM39.1748 67.0738C54.4675 67.0738 66.8647 54.6766 66.8647 39.3839C66.8647 24.0912 54.4675 11.694 39.1748 11.694C23.8821 11.694 11.4849 24.0912 11.4849 39.3839C11.4849 54.6766 23.8821 67.0738 39.1748 67.0738ZM22.2744 23.7241C23.1028 23.7241 23.7744 24.3957 23.7744 25.2241V42.5088C23.7744 46.5457 25.3545 50.4223 28.1767 53.3089C34.0912 59.3584 43.7715 59.5254 49.8911 53.6833L50.142 53.4438C53.265 50.4624 55.0319 46.3329 55.0319 42.0153V25.2241C55.0319 24.3957 55.7035 23.7241 56.5319 23.7241C57.3604 23.7241 58.0319 24.3957 58.0319 25.2241V42.0153C58.0319 47.1527 55.9295 52.0663 52.2135 55.6138L51.9626 55.8533C44.6546 62.8298 33.0946 62.6304 26.0316 55.4061C22.6614 51.959 20.7744 47.3296 20.7744 42.5088V25.2241C20.7744 24.3957 21.4459 23.7241 22.2744 23.7241ZM49.6804 31.162C49.6804 36.9642 44.9769 52.4017 39.1747 52.4017C33.3726 52.4017 28.6691 36.9642 28.6691 31.162C28.6691 25.3599 33.3726 20.6564 39.1747 20.6564C44.9769 20.6564 49.6804 25.3599 49.6804 31.162ZM44.6559 31.162C44.6559 34.1892 42.2019 36.6432 39.1747 36.6432C36.1475 36.6432 33.6935 34.1892 33.6935 31.162C33.6935 28.1348 36.1475 25.6808 39.1747 25.6808C42.2019 25.6808 44.6559 28.1348 44.6559 31.162Z" fill="#5BC17F"/>
</svg>
